<svg width="256" height="256"><circle r="96" cy="128" cx="128" stroke="black" stroke-width="2" fill="none"></circle><polygon points="224,128 157.66563145999496,219.30142556433475 50.33436854000506,184.42738422007744 50.334368540005045,71.57261577992259 157.66563145999493,36.69857443566525" stroke="black" stroke-width="2" fill="none"></polygon><line x1="128" y1="128" x2="224" y2="128" stroke="black" stroke-width="2" fill="none"></line><line x1="128" y1="128" x2="157.66563145999496" y2="219.30142556433475" stroke="black" stroke-width="2" fill="none"></line><line x1="128" y1="128" x2="50.33436854000506" y2="184.42738422007744" stroke="black" stroke-width="2" fill="none"></line><line x1="128" y1="128" x2="50.334368540005045" y2="71.57261577992259" stroke="black" stroke-width="2" fill="none"></line><line x1="128" y1="128" x2="157.66563145999493" y2="36.69857443566525" stroke="black" stroke-width="2" fill="none"></line><polygon points="32,128 175.99999999999994,44.86156123669386 176.00000000000006,211.13843876330608" stroke="black" stroke-width="2" fill="none"></polygon><circle cx="128" cy="128" r="66" stroke="black" stroke-width="2" fill="none"></circle><polygon points="64,128 159.99999999999994,72.5743741577959 160.00000000000003,183.42562584220406" stroke="black" stroke-width="2" fill="none"></polygon><circle cx="224" cy="128" r="13.09090909090909" stroke="black" stroke-width="2" fill="none"></circle><circle cx="157.66563145999496" cy="219.30142556433475" r="13.09090909090909" stroke="black" stroke-width="2" fill="none"></circle><circle cx="50.33436854000506" cy="184.42738422007744" r="13.09090909090909" stroke="black" stroke-width="2" fill="none"></circle><circle cx="50.334368540005045" cy="71.57261577992259" r="13.09090909090909" stroke="black" stroke-width="2" fill="none"></circle><circle cx="157.66563145999493" cy="36.69857443566525" r="13.09090909090909" stroke="black" stroke-width="2" fill="none"></circle></svg>